<?xml version="1.0" encoding="utf-8"?>
<svg version="1.1" xmlns:xlink="http://www.w3.org/1999/xlink" width="67px" height="17px" xmlns="http://www.w3.org/2000/svg">
  <defs>
    <mask fill="white" id="clip2">
      <path d="M 0 12  L 0 5  C 0 2.19999999999999  2.20000000000005 0  5 0  L 42.5294117647051 0  L 62 0  C 64.8 0  67 2.19999999999999  67 5  L 67 12  C 67 14.8  64.8 17  62 17  L 5 17  C 2.20000000000005 17  0 14.8  0 12  Z " fill-rule="evenodd" />
    </mask>
  </defs>
  <g transform="matrix(1 0 0 1 -729 -208 )">
    <path d="M 0 12  L 0 5  C 0 2.19999999999999  2.20000000000005 0  5 0  L 42.5294117647051 0  L 62 0  C 64.8 0  67 2.19999999999999  67 5  L 67 12  C 67 14.8  64.8 17  62 17  L 5 17  C 2.20000000000005 17  0 14.8  0 12  Z " fill-rule="nonzero" fill="#5871b1" stroke="none" transform="matrix(1 0 0 1 729 208 )" />
    <path d="M 0 12  L 0 5  C 0 2.19999999999999  2.20000000000005 0  5 0  L 42.5294117647051 0  L 62 0  C 64.8 0  67 2.19999999999999  67 5  L 67 12  C 67 14.8  64.8 17  62 17  L 5 17  C 2.20000000000005 17  0 14.8  0 12  Z " stroke-width="2" stroke="#000000" fill="none" transform="matrix(1 0 0 1 729 208 )" mask="url(#clip2)" />
  </g>
</svg>